# xmcd
#
# Track frame offsets: 
#        150
#        18054
#        37352
#        54366
#        68001
#        89696
#        109105
#        120898
#        134971
#        147376
#        169176
#        180966
#        194612
#        215831
#
# Disc length: 3094 seconds
#
# Revision: 0
# Processed by: cddbd v1.5.2PL0 Copyright (c) Steve Scherf et al.
# Submitted via: ExactAudioCopy v0.95b4
#
DISCID=d20c140e
DTITLE=Various Artist - Soul Divas
DYEAR=2003
DGENRE=Soul
TTITLE0=Dionne Warwick - In Between The Heartaches
TTITLE1=Gladys Knight - You Got It
TTITLE2=Dionne Warwick - Don't Say I Didn't Tell You
TTITLE3=Freda Payne - Can't Live On A Memory
TTITLE4=Anita Baker - Sweet Love
TTITLE5=Aretha Franklin - I Dreamed A Dream
TTITLE6=Diana Ross and The Supprems - (You'ra Gone But) Always in My Hea
TTITLE6=rt
TTITLE7=Carla Thomas - Another Night Without My Man
TTITLE8=Carla Thomas - Lovers Concerto
TTITLE9=Patti La Bell and Michael McDonald -  On My Own
TTITLE10=Esther Phillips - It's All In The Game
TTITLE11=Esther Phillips - Fa Fa Fa (Sad Song)
TTITLE12=Gloria Gaynor Feat. Earl Young and The Trammps - Mighty High
TTITLE13=Gloria Gaynor - I Say A Little Prayer
EXTD=
EXTT0=
EXTT1=
EXTT2=
EXTT3=
EXTT4=
EXTT5=
EXTT6=
EXTT7=
EXTT8=
EXTT9=
EXTT10=
EXTT11=
EXTT12=
EXTT13=
PLAYORDER=
